<svg xmlns="http://www.w3.org/2000/svg" viewBox="0 0 760 560" role="img" aria-label="Сучасний навчальний корпус у стилізованій ілюстрації"><defs><linearGradient id="sky" x1="0" y1="0" x2="1" y2="1"><stop stop-color="#d9f7f2"/><stop offset="1" stop-color="#e8effc"/></linearGradient><linearGradient id="glass" x1="0" y1="0" x2="0" y2="1"><stop stop-color="#6fd3cb"/><stop offset="1" stop-color="#16767f"/></linearGradient><filter id="shadow" x="-20%" y="-20%" width="140%" height="160%"><feDropShadow dx="0" dy="18" stdDeviation="18" flood-color="#0b2345" flood-opacity=".18"/></filter></defs><rect width="760" height="560" rx="42" fill="url(#sky)"/><circle cx="620" cy="98" r="44" fill="#f7c75c"/><path d="M0 420c125-34 258-44 398-30s254 8 362-17v187H0V420Z" fill="#bfe3d7"/><path d="M0 464c184-22 357-14 520 22 80 18 160 23 240 14v60H0v-96Z" fill="#74b69c" opacity=".55"/><g filter="url(#shadow)"><path d="M145 202 392 112l228 90v246H145V202Z" fill="#fff"/><path d="M173 215 394 136l198 79v36H173v-36Z" fill="#0b2345"/><rect x="185" y="277" width="372" height="171" rx="3" fill="#eef4f7"/><rect x="225" y="288" width="74" height="120" rx="5" fill="url(#glass)"/><rect x="321" y="288" width="74" height="120" rx="5" fill="url(#glass)"/><rect x="417" y="288" width="74" height="120" rx="5" fill="url(#glass)"/><path d="M149 448h466" stroke="#0b2345" stroke-width="12" stroke-linecap="round"/><path d="M366 448v-80h58v80" fill="#f2b84b"/></g><g fill="#0b2345"><circle cx="115" cy="413" r="14"/><path d="M105 430h20l9 60H96l9-60Z"/><circle cx="652" cy="410" r="14"/><path d="M642 427h20l12 63h-44l12-63Z"/></g><g fill="#238b82"><circle cx="74" cy="373" r="37"/><rect x="68" y="404" width="12" height="76" rx="6"/><circle cx="690" cy="350" r="45"/><rect x="684" y="390" width="13" height="96" rx="6"/></g><path d="M70 510c125-34 254-36 387-8 93 20 173 19 240-2" fill="none" stroke="#fff" stroke-opacity=".75" stroke-width="12" stroke-linecap="round"/></svg>